<svg width="51" height="52" viewBox="0 0 51 52" fill="none" xmlns="http://www.w3.org/2000/svg">
<path d="M25.5391 41.7617C16.8591 41.7617 9.78906 34.6917 9.78906 26.0117C9.78906 17.3317 16.8591 10.2617 25.5391 10.2617C34.2191 10.2617 41.2891 17.3317 41.2891 26.0117C41.2891 34.6917 34.2191 41.7617 25.5391 41.7617ZM25.5391 11.7617C17.6791 11.7617 11.2891 18.1517 11.2891 26.0117C11.2891 33.8717 17.6791 40.2617 25.5391 40.2617C33.3991 40.2617 39.7891 33.8717 39.7891 26.0117C39.7891 18.1517 33.3991 11.7617 25.5391 11.7617Z" fill="white"/>
<path d="M25.5378 51.2811C24.6678 51.2811 23.7878 51.2311 22.9178 51.1511C21.7678 51.0311 20.8378 50.1611 20.6378 49.0311L20.1578 46.2111C20.1178 46.0011 19.9578 45.8211 19.7178 45.7511C18.3278 45.3411 16.9678 44.7811 15.6978 44.0911C15.4878 43.9711 15.2378 43.9811 15.0678 44.1011L12.7278 45.7511C11.7878 46.4111 10.5078 46.3711 9.6178 45.6411C8.9478 45.1011 8.29782 44.5111 7.66782 43.8811C7.04782 43.2611 6.45781 42.6011 5.90781 41.9311C5.17781 41.0411 5.13782 39.7611 5.79782 38.8211L7.44781 36.4811C7.56781 36.3011 7.57782 36.0611 7.45782 35.8511C6.76782 34.5811 6.20782 33.2211 5.79782 31.8311C5.72782 31.6011 5.5578 31.4311 5.3378 31.3911L2.51782 30.9111C1.38782 30.7211 0.517827 29.7811 0.397827 28.6411C0.307827 27.7811 0.257812 26.8911 0.257812 26.0211C0.257812 25.1511 0.307827 24.2611 0.397827 23.4011C0.517827 22.2511 1.38782 21.3211 2.51782 21.1211L5.3378 20.6411C5.5478 20.6011 5.72782 20.4411 5.79782 20.2011C6.20782 18.8111 6.76782 17.4511 7.45782 16.1811C7.57782 15.9711 7.56781 15.7211 7.44781 15.5511L5.79782 13.2111C5.13782 12.2711 5.17781 10.9911 5.90781 10.1011C6.45781 9.4311 7.04782 8.7711 7.66782 8.1511C8.28782 7.5311 8.9478 6.9411 9.6178 6.3911C10.5078 5.6611 11.7878 5.6211 12.7278 6.2811L15.0678 7.9311C15.2478 8.0611 15.4878 8.06109 15.6978 7.94109C16.9678 7.25109 18.3278 6.6911 19.7178 6.2811C19.9478 6.2111 20.1178 6.0411 20.1578 5.8211L20.6378 3.0011C20.8278 1.8711 21.7678 0.991094 22.9178 0.881094C24.6478 0.701094 26.4378 0.701094 28.1678 0.881094C29.3078 1.00109 30.2478 1.8711 30.4478 3.0011L30.9278 5.8211C30.9678 6.0311 31.1278 6.2111 31.3678 6.2811C32.7578 6.6911 34.1178 7.25109 35.3878 7.94109C35.5978 8.06109 35.8478 8.0511 36.0178 7.9311L38.3578 6.2811C39.2978 5.6211 40.5778 5.6611 41.4678 6.3911C42.1378 6.9411 42.7978 7.5311 43.4178 8.1511C44.0378 8.7811 44.6378 9.4311 45.1778 10.1011C45.9078 10.9911 45.9478 12.2711 45.2878 13.2111L43.6378 15.5511C43.5178 15.7311 43.5078 15.9711 43.6178 16.1811C44.3078 17.4511 44.8678 18.8011 45.2778 20.2011C45.3478 20.4311 45.5178 20.6011 45.7378 20.6411L48.5578 21.1211C49.6878 21.3111 50.5578 22.2511 50.6778 23.4011C50.7678 24.2711 50.8178 25.1611 50.8178 26.0211C50.8178 26.8811 50.7678 27.7711 50.6778 28.6411C50.5578 29.7911 49.6878 30.7211 48.5578 30.9211L45.7378 31.4011C45.5278 31.4411 45.3478 31.6011 45.2778 31.8411C44.8678 33.2411 44.3078 34.5911 43.6178 35.8611C43.4978 36.0711 43.5078 36.3211 43.6278 36.4911L45.2778 38.8311C45.9378 39.7711 45.8978 41.0511 45.1678 41.9411C44.6178 42.6111 44.0278 43.2711 43.4078 43.8911C42.7778 44.5111 42.1278 45.1111 41.4578 45.6511C40.5678 46.3811 39.2878 46.4211 38.3478 45.7611L36.0078 44.1111C35.8278 43.9911 35.5878 43.9811 35.3778 44.1011C34.1078 44.7911 32.7478 45.3511 31.3578 45.7611C31.1278 45.8311 30.9578 46.0011 30.9178 46.2211L30.4378 49.0411C30.2378 50.1711 29.3078 51.0511 28.1578 51.1611C27.2878 51.2511 26.3978 51.2911 25.5378 51.2911V51.2811ZM15.3778 41.9911C15.8078 41.9911 16.2478 42.1011 16.6578 42.3211C17.8078 42.9411 19.0278 43.4511 20.2878 43.8211C21.2578 44.1111 21.9678 44.8911 22.1278 45.8611L22.6078 48.6811C22.6478 48.9311 22.8578 49.1311 23.1178 49.1511C24.7278 49.3211 26.3378 49.3211 27.9578 49.1511C28.2178 49.1211 28.4278 48.9311 28.4678 48.6811L28.9478 45.8611C29.1178 44.8911 29.8178 44.1111 30.7878 43.8211C32.0478 43.4511 33.2678 42.9411 34.4178 42.3211C35.3078 41.8311 36.3578 41.8911 37.1578 42.4611L39.4978 44.1111C39.7078 44.2611 39.9878 44.2411 40.1878 44.0811C40.8078 43.5811 41.4078 43.0311 41.9878 42.4611C42.5578 41.8911 43.1078 41.2811 43.6078 40.6611C43.7678 40.4611 43.7778 40.1711 43.6378 39.9711L41.9878 37.6311C41.4178 36.8311 41.3678 35.7711 41.8478 34.8911C42.4678 33.7411 42.9778 32.5211 43.3478 31.2611C43.6378 30.2911 44.4178 29.5811 45.3878 29.4211L48.2078 28.9411C48.4578 28.9011 48.6578 28.6911 48.6778 28.4311C48.7578 27.6311 48.7978 26.8111 48.7978 26.0111C48.7978 25.2111 48.7578 24.4011 48.6778 23.5911C48.6478 23.3311 48.4578 23.1211 48.2078 23.0811L45.3878 22.6011C44.4178 22.4311 43.6378 21.7311 43.3478 20.7611C42.9778 19.5011 42.4678 18.2811 41.8478 17.1311C41.3678 16.2411 41.4178 15.1911 41.9878 14.3911L43.6378 12.0511C43.7878 11.8411 43.7778 11.5611 43.6078 11.3611C43.1078 10.7411 42.5578 10.1411 41.9878 9.5611C41.4178 8.9911 40.8178 8.45109 40.1878 7.94109C39.9878 7.78109 39.6978 7.77109 39.4978 7.91109L37.1578 9.5611C36.3478 10.1311 35.2978 10.1811 34.4178 9.7011C33.2678 9.0711 32.0478 8.5711 30.7878 8.2011C29.8178 7.9111 29.1078 7.13109 28.9478 6.16109L28.4678 3.3411C28.4278 3.0911 28.2178 2.8911 27.9578 2.8711C26.3678 2.7011 24.7178 2.7011 23.1278 2.8711C22.8678 2.9011 22.6578 3.0911 22.6178 3.3411L22.1378 6.16109C21.9678 7.13109 21.2678 7.9111 20.2978 8.2011C19.0378 8.5711 17.8178 9.0811 16.6678 9.7011C15.7778 10.1811 14.7278 10.1311 13.9278 9.5611L11.5878 7.91109C11.3778 7.76109 11.0978 7.77109 10.8978 7.94109C10.2778 8.45109 9.66781 8.9911 9.09781 9.5611C8.52781 10.1311 7.97781 10.7411 7.47781 11.3611C7.31781 11.5611 7.30781 11.8511 7.44781 12.0511L9.09781 14.3911C9.66781 15.1911 9.71782 16.2511 9.23782 17.1311C8.61782 18.2811 8.10782 19.5011 7.73782 20.7611C7.44782 21.7311 6.66781 22.4411 5.69781 22.6011L2.87781 23.0811C2.62781 23.1211 2.42781 23.3311 2.40781 23.5911C2.32781 24.3811 2.28781 25.2011 2.28781 26.0111C2.28781 26.8211 2.32781 27.6311 2.40781 28.4311C2.43781 28.6911 2.62781 28.9011 2.87781 28.9411L5.69781 29.4211C6.66781 29.5911 7.44782 30.2911 7.73782 31.2611C8.10782 32.5211 8.61782 33.7411 9.23782 34.8911C9.71782 35.7811 9.66781 36.8311 9.09781 37.6311L7.44781 39.9711C7.29781 40.1811 7.30781 40.4611 7.47781 40.6611C7.98781 41.2811 8.52781 41.8911 9.09781 42.4611C9.67781 43.0311 10.2778 43.5811 10.8978 44.0811C11.0978 44.2511 11.3878 44.2611 11.5878 44.1111L13.9278 42.4611C14.3678 42.1511 14.8778 41.9911 15.3978 41.9911H15.3778Z" fill="white"/>
<path d="M34.5347 20.9705C34.9247 20.9705 35.2447 20.6505 35.2447 20.2605C35.2447 19.8705 34.9247 19.5505 34.5347 19.5505H27.3547C27.1547 18.9505 26.7347 18.4705 26.1847 18.2605V15.8705C26.1847 15.5105 25.8947 15.2305 25.5447 15.2305C25.1847 15.2305 24.9047 15.5205 24.9047 15.8705V18.2605C24.3547 18.4705 23.9247 18.9505 23.7347 19.5505H16.5547C16.1647 19.5505 15.8447 19.8705 15.8447 20.2605C15.8447 20.6505 16.1647 20.9705 16.5547 20.9705H17.4547L14.5547 28.8105C14.5547 30.7705 16.0047 32.3705 17.7747 32.3705H19.0647C20.8447 32.3705 22.2847 30.7705 22.2847 28.8105L19.3747 20.9705H23.7347C23.9347 21.5705 24.3547 22.0505 24.9047 22.2605V32.4505C23.8247 32.6905 22.9447 33.5305 22.5447 34.6405C22.4447 34.9305 22.6747 35.2205 22.9947 35.2205H28.1047C28.4147 35.2205 28.6547 34.9305 28.5547 34.6405C28.1647 33.5305 27.2747 32.6905 26.1947 32.4505V22.2605C26.7447 22.0505 27.1747 21.5705 27.3647 20.9705H31.7147L28.8147 28.8105C28.8147 30.7705 30.2647 32.3705 32.0347 32.3705H33.3247C35.1047 32.3705 36.5447 30.7705 36.5447 28.8105L33.6347 20.9705H34.5447H34.5347ZM20.6547 28.1005H16.1447L18.4047 22.1105L20.6647 28.1005H20.6547ZM34.9247 28.1005H30.4147L32.6747 22.1105L34.9347 28.1005H34.9247Z" fill="white"/>
</svg>
