<svg width="50" height="38" viewBox="0 0 50 38" fill="none" xmlns="http://www.w3.org/2000/svg">
<path d="M32.0486 0.0195312C35.6084 0.6178 39.0787 1.68478 42.3592 3.19043C48.013 11.4566 50.8249 20.7906 49.7879 31.5596C45.9689 34.3813 41.6913 36.5253 37.1346 37.9014C36.1074 36.5253 35.1995 35.0588 34.4217 33.5332C35.9074 32.9748 37.3339 32.2968 38.7 31.4893C38.341 31.2499 37.9912 30.9804 37.6521 30.7012C29.6352 34.4702 20.3623 34.4702 12.3553 30.7012C12.0162 30.9604 11.6664 31.2299 11.3074 31.4893C12.6735 32.2869 14.1001 32.9751 15.576 33.5234C14.7982 35.0491 13.8901 36.5147 12.8631 37.8906C8.30624 36.5147 4.02877 34.3608 0.20975 31.5391C-0.66771 22.2559 1.09662 12.8427 7.61795 3.18066C10.9085 1.67501 14.3795 0.608255 17.9392 0C18.4279 0.867452 18.8767 1.76532 19.2654 2.68262C23.0646 2.1143 26.9235 2.11427 30.7127 2.68262C31.1115 1.76527 31.5503 0.867497 32.0389 0L32.0486 0.0195312ZM16.6853 15.8252C14.1526 15.8252 12.1883 18.0691 12.1883 20.8311C12.1883 23.5931 14.2322 25.8271 16.6951 25.8271C19.2079 25.8271 21.1522 23.583 21.1922 20.8311C21.2319 18.0791 19.2179 15.8254 16.6853 15.8252ZM33.3074 15.8252C30.7748 15.8253 28.8104 18.0692 28.8103 20.8311C28.8103 23.593 30.8346 25.827 33.3074 25.8271C35.8202 25.8271 37.7647 23.5831 37.8045 20.8311C37.8444 18.079 35.84 15.8252 33.3074 15.8252Z" fill="url(#paint0_linear_9996_1139)"/>
<defs>
<linearGradient id="paint0_linear_9996_1139" x1="42.1855" y1="6.65266" x2="9.33627" y2="43.6042" gradientUnits="userSpaceOnUse">
<stop stop-color="#EA96FE"/>
<stop offset="0.5" stop-color="#B15AF7"/>
<stop offset="1" stop-color="#832AF2"/>
</linearGradient>
</defs>
</svg>
