<svg width="80" height="80" viewBox="0 0 80 80" fill="none" xmlns="http://www.w3.org/2000/svg">
<mask id="mask0_9985_487" style="mask-type:alpha" maskUnits="userSpaceOnUse" x="0" y="0" width="80" height="80">
<rect width="80" height="80" fill="#0E0D0D"/>
</mask>
<g mask="url(#mask0_9985_487)">
<path d="M72.1594 47.7089C73.3184 44.2275 73.9059 40.5708 73.8902 36.8828C73.8905 34.1831 73.5724 31.4957 72.9443 28.8765C72.7873 28.2215 73.0982 27.538 73.7074 27.2505C74.4777 26.8869 75.3923 27.2982 75.5941 28.1257C77.2526 34.9273 76.9533 42.0828 74.7026 48.7488C74.603 49.044 74.3939 49.2892 74.1208 49.4391C73.0482 50.0282 71.7729 48.87 72.1594 47.7089Z" fill="url(#paint0_linear_9985_487)"/>
<path d="M7.66904 26.2908C5.80799 32.0176 5.49434 38.1269 6.74453 43.9974C6.92969 44.8668 6.28305 45.7101 5.39411 45.7101C4.77264 45.7101 4.22854 45.287 4.09625 44.6797C2.65423 38.061 3.05804 31.1634 5.27358 24.7493C7.60437 18.0016 11.8396 12.0804 17.4631 7.70738C23.0866 3.33436 29.8555 0.698363 36.9448 0.12065C41.7547 -0.271308 46.5711 0.295678 51.1238 1.7643C51.8445 1.99679 52.2127 2.78424 51.9585 3.49756C51.7019 4.21746 50.9093 4.58826 50.1808 4.3571C45.8038 2.96816 41.1717 2.47861 36.564 2.94214C30.0117 3.60132 23.7916 6.15946 18.6613 10.305C13.531 14.4506 9.71186 20.0046 7.66904 26.2908Z" fill="url(#paint1_linear_9985_487)"/>
<path d="M78.2461 55.0536C78.3721 54.3404 78.2112 53.6062 77.7987 53.012L77.8161 52.9769C77.4016 52.392 76.774 51.9948 76.0697 51.8717C75.3653 51.7487 74.641 51.9096 74.054 52.3196L56.9718 64.1522C56.5319 65.0833 55.8387 65.8704 54.9722 66.4225C54.1056 66.9747 53.1012 67.2694 52.0749 67.2725H35.7782C35.5896 67.2876 35.4 67.2634 35.2212 67.2013C35.0424 67.1393 34.8783 67.0407 34.7393 66.9119C34.6003 66.783 34.4894 66.6267 34.4136 66.4526C34.3377 66.2786 34.2985 66.0907 34.2985 65.9008C34.2985 65.7108 34.3377 65.5229 34.4136 65.3489C34.4894 65.1749 34.6003 65.0185 34.7393 64.8897C34.8783 64.7608 35.0424 64.6623 35.2212 64.6002C35.4 64.5381 35.5896 64.5139 35.7782 64.5291H52.0749C52.7926 64.5291 53.4808 64.2428 53.9883 63.7332C54.4957 63.2237 54.7808 62.5326 54.7808 61.8119C54.7808 61.0913 54.4957 60.4002 53.9883 59.8907C53.4808 59.3811 52.7926 59.0948 52.0749 59.0948H39.4007C39.2961 59.1035 39.191 59.1035 39.0864 59.0948H39.0079L38.7984 59.0072H38.7111C38.646 58.9693 38.5846 58.9252 38.5278 58.8757L38.4667 58.8231C38.3883 58.7548 38.3206 58.6751 38.2659 58.5865L36.8344 56.5004C36.1381 55.426 35.186 54.5428 34.0643 53.9306C32.9426 53.3185 31.6867 52.9967 30.41 52.9945H14.6982V72.882L35.2894 78.7019C37.8042 79.5221 40.4762 79.7344 43.0882 79.3217C45.7001 78.9089 48.1781 77.8827 50.3204 76.3266L77.1266 56.816C77.7174 56.4005 78.1201 55.7667 78.2461 55.0536Z" fill="url(#paint2_linear_9985_487)"/>
<path d="M11.9801 48.4517H1.60156V77.0165H11.9801V48.4517Z" fill="url(#paint3_linear_9985_487)"/>
<path d="M60.588 36.4867H48.647V56.4356H52.0687C53.2946 56.4429 54.4824 56.8645 55.4405 57.6325C56.3986 58.4006 57.0711 59.4703 57.3496 60.6691L60.588 58.399V36.4867Z" fill="url(#paint4_linear_9985_487)"/>
<path d="M45.9267 19.5312H33.9595V50.8833C36.0778 51.6452 37.8937 53.075 39.1357 54.959L40.1395 56.4315H45.9267V19.5312Z" fill="url(#paint5_linear_9985_487)"/>
<path d="M19.3099 28.6553V50.2958H31.2771V28.6553H19.3099Z" fill="url(#paint6_linear_9985_487)"/>
<path fill-rule="evenodd" clip-rule="evenodd" d="M59.4064 0.822013C61.1299 0.189711 62.9642 -0.0822533 64.7961 0.022208C66.628 0.126729 68.4197 0.605273 70.0607 1.42943C71.7017 2.25365 73.158 3.40596 74.34 4.81518C75.522 6.22444 76.4049 7.86171 76.9348 9.62572C77.4645 11.3896 77.63 13.2436 77.4211 15.074C77.2121 16.9045 76.6335 18.6733 75.7199 20.2712C74.8063 21.8692 73.5766 23.2628 72.1076 24.3669L69.6808 25.7956C67.0004 27.0384 63.9874 27.3622 61.1057 26.7175C58.224 26.0728 55.6331 24.4952 53.7316 22.2273C51.8302 19.9594 50.7238 17.127 50.5822 14.1658C50.4407 11.2045 51.272 8.27805 52.9484 5.83764L54.7726 3.69897C56.106 2.43323 57.683 1.45434 59.4064 0.822013ZM69.7687 6.42065C69.5895 6.42065 69.4118 6.45613 69.2463 6.52514C69.0809 6.59415 68.9303 6.6956 68.8039 6.82299L57.3781 18.2693C57.1508 18.5327 57.0313 18.8732 57.0441 19.2214C57.0569 19.5697 57.2015 19.9004 57.4475 20.1462C57.6933 20.3918 58.0227 20.5343 58.3693 20.5456C58.7161 20.5569 59.0544 20.436 59.3156 20.2068L70.7336 8.75951C70.8615 8.63312 70.9631 8.48235 71.0324 8.31615C71.1018 8.14988 71.1379 7.97104 71.1379 7.79076C71.1378 7.61069 71.1017 7.43245 71.0324 7.26635C70.9631 7.1002 70.8614 6.94936 70.7336 6.82299C70.6071 6.69558 70.4566 6.59415 70.2912 6.52514C70.1257 6.45613 69.948 6.42065 69.7687 6.42065ZM68.3088 15.3679C67.8277 15.368 67.357 15.5107 66.9562 15.7781C66.5555 16.0455 66.2423 16.4263 66.0558 16.8718C65.8695 17.3173 65.8181 17.8084 65.9084 18.2829C65.9987 18.7575 66.2269 19.1947 66.5637 19.5398V19.5134C66.7895 19.7483 67.0598 19.9355 67.3586 20.0642C67.6574 20.1929 67.9788 20.261 68.3039 20.2634C68.629 20.2658 68.9515 20.2031 69.2521 20.0788C69.5528 19.9546 69.8256 19.7712 70.0549 19.5398C70.3916 19.1947 70.6198 18.7575 70.7101 18.2829C70.8004 17.8084 70.749 17.3173 70.5627 16.8718C70.3763 16.4264 70.063 16.0455 69.6623 15.7781C69.2615 15.5106 68.79 15.3679 68.3088 15.3679ZM60.7424 7.01049C60.2987 6.82328 59.8098 6.7714 59.3371 6.86205C58.8645 6.95269 58.4289 7.1812 58.0851 7.51928C57.8518 7.74716 57.6659 8.01995 57.5392 8.32104C57.4127 8.62199 57.3479 8.94552 57.3478 9.27221C57.3478 9.59905 57.4126 9.92327 57.5392 10.2244C57.6659 10.5254 57.8518 10.7982 58.0851 11.0261C58.4289 11.3642 58.8645 11.5927 59.3371 11.6833C59.8098 11.774 60.2987 11.7221 60.7424 11.5349C61.186 11.3477 61.5649 11.0331 61.8312 10.6306C62.0975 10.2282 62.2394 9.75537 62.2394 9.27221C62.2394 8.78922 62.0974 8.3171 61.8312 7.91479C61.5649 7.51232 61.186 7.1977 60.7424 7.01049Z" fill="url(#paint7_linear_9985_487)"/>
</g>
<defs>
<linearGradient id="paint0_linear_9985_487" x1="66.3027" y1="13.959" x2="-1.79269" y2="69.9496" gradientUnits="userSpaceOnUse">
<stop stop-color="#EA96FE"/>
<stop offset="0.5" stop-color="#B15AF7"/>
<stop offset="1" stop-color="#832AF2"/>
</linearGradient>
<linearGradient id="paint1_linear_9985_487" x1="66.3027" y1="13.959" x2="-1.79269" y2="69.9496" gradientUnits="userSpaceOnUse">
<stop stop-color="#EA96FE"/>
<stop offset="0.5" stop-color="#B15AF7"/>
<stop offset="1" stop-color="#832AF2"/>
</linearGradient>
<linearGradient id="paint2_linear_9985_487" x1="66.3027" y1="13.959" x2="-1.79269" y2="69.9496" gradientUnits="userSpaceOnUse">
<stop stop-color="#EA96FE"/>
<stop offset="0.5" stop-color="#B15AF7"/>
<stop offset="1" stop-color="#832AF2"/>
</linearGradient>
<linearGradient id="paint3_linear_9985_487" x1="66.3027" y1="13.959" x2="-1.79269" y2="69.9496" gradientUnits="userSpaceOnUse">
<stop stop-color="#EA96FE"/>
<stop offset="0.5" stop-color="#B15AF7"/>
<stop offset="1" stop-color="#832AF2"/>
</linearGradient>
<linearGradient id="paint4_linear_9985_487" x1="66.3027" y1="13.959" x2="-1.79269" y2="69.9496" gradientUnits="userSpaceOnUse">
<stop stop-color="#EA96FE"/>
<stop offset="0.5" stop-color="#B15AF7"/>
<stop offset="1" stop-color="#832AF2"/>
</linearGradient>
<linearGradient id="paint5_linear_9985_487" x1="66.3027" y1="13.959" x2="-1.79269" y2="69.9496" gradientUnits="userSpaceOnUse">
<stop stop-color="#EA96FE"/>
<stop offset="0.5" stop-color="#B15AF7"/>
<stop offset="1" stop-color="#832AF2"/>
</linearGradient>
<linearGradient id="paint6_linear_9985_487" x1="66.3027" y1="13.959" x2="-1.79269" y2="69.9496" gradientUnits="userSpaceOnUse">
<stop stop-color="#EA96FE"/>
<stop offset="0.5" stop-color="#B15AF7"/>
<stop offset="1" stop-color="#832AF2"/>
</linearGradient>
<linearGradient id="paint7_linear_9985_487" x1="66.3027" y1="13.959" x2="-1.79269" y2="69.9496" gradientUnits="userSpaceOnUse">
<stop stop-color="#EA96FE"/>
<stop offset="0.5" stop-color="#B15AF7"/>
<stop offset="1" stop-color="#832AF2"/>
</linearGradient>
</defs>
</svg>
