<svg width="53" height="53" viewBox="0 0 53 53" fill="none" xmlns="http://www.w3.org/2000/svg">
<path d="M26.7344 23.2731C26.7344 26.2631 29.1444 28.6831 32.1244 28.6831C35.1044 28.6831 37.5144 26.2631 37.5144 23.2731C37.5144 20.2831 32.1244 12.4531 32.1244 12.4531C32.1244 12.4531 26.7344 20.2831 26.7344 23.2731Z" fill="white"/>
<path d="M32.1322 29.6816C28.6022 29.6816 25.7422 26.8016 25.7422 23.2716C25.7422 20.0616 30.7422 12.7116 31.3122 11.8816C31.6822 11.3416 32.5822 11.3416 32.9622 11.8816C33.5322 12.7116 38.5322 20.0616 38.5322 23.2716C38.5322 26.8116 35.6622 29.6816 32.1422 29.6816H32.1322ZM32.1322 14.2516C30.1722 17.2716 27.7422 21.5716 27.7422 23.2716C27.7422 25.7016 29.7122 27.6816 32.1322 27.6816C34.5522 27.6816 36.5222 25.7016 36.5222 23.2716C36.5222 21.5716 34.0922 17.2716 32.1322 14.2516Z" fill="white"/>
<path d="M18.4778 40.37C18.4778 38.05 17.2278 37.25 14.7278 36.92C12.9378 36.65 12.5878 36.12 12.5878 35.19C12.5878 34.26 13.1878 33.66 14.3778 33.66C15.4478 33.66 16.0478 34.06 16.3378 35.05C16.3978 35.25 16.5778 35.38 16.7578 35.38H17.7078C17.9478 35.38 18.1278 35.18 18.1278 34.91V34.84C17.8878 33.38 16.8178 32.25 15.4478 32.12V30.53C15.4478 30.26 15.2678 30.06 14.9678 30H14.0778C13.8378 30 13.6578 30.2 13.6078 30.53V32.06C11.8178 32.33 10.6878 33.65 10.6878 35.31C10.6878 37.5 11.8778 38.36 14.3778 38.7C16.0478 39.03 16.5778 39.43 16.5778 40.49C16.5778 41.55 15.7478 42.28 14.6178 42.28C13.0678 42.28 12.5378 41.55 12.3578 40.55C12.2978 40.28 12.1178 40.15 11.9378 40.15H10.9278C10.6878 40.15 10.5078 40.35 10.5078 40.62V40.69C10.7478 42.35 11.6978 43.55 13.6578 43.88V45.47C13.6578 45.74 13.8378 45.94 14.1378 46H15.0278C15.2678 46 15.4478 45.8 15.4978 45.47V43.88C17.2778 43.55 18.4778 42.15 18.4778 40.36V40.37Z" fill="white"/>
<path d="M14.479 52.0816C6.789 52.0816 0.539062 45.8116 0.539062 38.0916C0.539062 30.3716 6.799 24.1016 14.479 24.1016C22.159 24.1016 28.419 30.3716 28.419 38.0916C28.419 45.8116 22.159 52.0816 14.479 52.0816ZM14.479 26.1116C7.889 26.1116 2.53906 31.4916 2.53906 38.1016C2.53906 44.7116 7.899 50.0916 14.479 50.0916C21.059 50.0916 26.419 44.7116 26.419 38.1016C26.419 31.4916 21.059 26.1116 14.479 26.1116Z" fill="white"/>
<path d="M1.54158 7.91859C1.28158 7.91859 1.03156 7.81859 0.831562 7.62859C0.441563 7.23859 0.441563 6.60859 0.831562 6.21859L5.68154 1.34859C5.87154 1.15859 6.12156 1.05859 6.39156 1.05859C6.66156 1.05859 6.91158 1.16859 7.10158 1.34859L11.9516 6.21859C12.3416 6.60859 12.3416 7.23859 11.9516 7.62859C11.5616 8.01859 10.9216 8.01859 10.5416 7.62859L6.39156 3.46859L2.24154 7.62859C2.04154 7.82859 1.79157 7.91859 1.53157 7.91859H1.54158Z" fill="white"/>
<path d="M6.39062 17.1208C5.84062 17.1208 5.39062 16.6708 5.39062 16.1208V2.05078C5.39062 1.50078 5.84062 1.05078 6.39062 1.05078C6.94063 1.05078 7.39062 1.50078 7.39062 2.05078V16.1208C7.39062 16.6708 6.94063 17.1208 6.39062 17.1208Z" fill="white"/>
<path d="M32.1175 41.0381C30.0075 41.0381 29.8275 41.0081 28.0775 40.6581L27.2475 40.4881C26.7075 40.3781 26.3575 39.8481 26.4675 39.3081C26.5775 38.7681 27.0975 38.4181 27.6475 38.5281L28.4775 38.6981C30.0975 39.0281 30.1575 39.0381 32.1175 39.0381C42.2675 39.0381 50.5375 30.7481 50.5375 20.5581C50.5375 10.3681 42.2775 2.07813 32.1175 2.07813C21.9575 2.07813 13.6975 10.3681 13.6975 20.5581C13.6975 22.0181 13.8675 23.4781 14.2075 24.8881C14.3375 25.4281 14.0075 25.9681 13.4675 26.0981C12.9275 26.2281 12.3875 25.8981 12.2575 25.3581C11.8775 23.7981 11.6875 22.1781 11.6875 20.5581C11.6875 9.26812 20.8475 0.078125 32.1075 0.078125C43.3675 0.078125 52.5275 9.26812 52.5275 20.5581C52.5275 31.8481 43.3675 41.0381 32.1075 41.0381H32.1175Z" fill="white"/>
</svg>
