<svg width="42" height="42" viewBox="0 0 42 42" fill="none" xmlns="http://www.w3.org/2000/svg">
<path d="M41.5468 20.7734C41.5468 9.29933 32.2474 0 20.7734 0C9.29933 0 0 9.29933 0 20.7734C0 32.2474 9.29933 41.5468 20.7734 41.5468C20.8951 41.5468 21.0168 41.5468 21.1385 41.5386V25.3744H16.6755V20.1729H21.1385V16.3428C21.1385 11.9041 23.8488 9.48597 27.8087 9.48597C29.7076 9.48597 31.3386 9.62392 31.8092 9.68884V14.3304H29.0827C26.9324 14.3304 26.5104 15.3528 26.5104 16.854V20.1648H31.6632L30.9897 25.3662H26.5104V40.7434C35.193 38.2522 41.5468 30.2594 41.5468 20.7734Z" fill="url(#paint0_linear_9992_1064)"/>
<defs>
<linearGradient id="paint0_linear_9992_1064" x1="35.0534" y1="7.29252" x2="-0.749328" y2="37.8213" gradientUnits="userSpaceOnUse">
<stop stop-color="#EA96FE"/>
<stop offset="0.5" stop-color="#B15AF7"/>
<stop offset="1" stop-color="#832AF2"/>
</linearGradient>
</defs>
</svg>
