<svg width="51" height="52" viewBox="0 0 51 52" fill="none" xmlns="http://www.w3.org/2000/svg">
<path d="M38.2891 29.0117H14.7891C11.8991 29.0117 9.53906 26.5417 9.53906 23.5117V22.0117C9.53906 21.4617 9.98906 21.0117 10.5391 21.0117C11.0891 21.0117 11.5391 21.4617 11.5391 22.0117V23.5117C11.5391 25.4417 12.9991 27.0117 14.7891 27.0117H38.2891C40.0791 27.0117 41.5391 25.4417 41.5391 23.5117V19.0117C41.5391 18.4617 41.9891 18.0117 42.5391 18.0117C43.0891 18.0117 43.5391 18.4617 43.5391 19.0117V23.5117C43.5391 26.5417 41.1791 29.0117 38.2891 29.0117ZM10.5391 12.0117C9.98906 12.0117 9.53906 11.5617 9.53906 11.0117V5.51172C9.53906 2.48172 11.8991 0.0117188 14.7891 0.0117188H38.2891C41.1791 0.0117188 43.5391 2.48172 43.5391 5.51172V10.0117C43.5391 10.5617 43.0891 11.0117 42.5391 11.0117C41.9891 11.0117 41.5391 10.5617 41.5391 10.0117V5.51172C41.5391 3.58172 40.0791 2.01172 38.2891 2.01172H14.7891C12.9991 2.01172 11.5391 3.58172 11.5391 5.51172V11.0117C11.5391 11.5617 11.0891 12.0117 10.5391 12.0117Z" fill="white"/>
<path d="M46.5391 20.0117H37.869C34.929 20.0117 32.5391 17.7717 32.5391 15.0117C32.5391 12.2517 34.929 10.0117 37.869 10.0117H46.5391C47.0891 10.0117 47.5391 10.4617 47.5391 11.0117V19.0117C47.5391 19.5617 47.0891 20.0117 46.5391 20.0117ZM37.869 12.0117C36.029 12.0117 34.5391 13.3617 34.5391 15.0117C34.5391 16.6617 36.029 18.0117 37.869 18.0117H45.5391V12.0117H37.869Z" fill="white"/>
<path d="M25.5391 43.5305C24.9891 43.5305 24.5391 43.0805 24.5391 42.5305V34.4805C24.5391 33.9305 24.9891 33.4805 25.5391 33.4805C26.0891 33.4805 26.5391 33.9305 26.5391 34.4805V42.5305C26.5391 43.0805 26.0891 43.5305 25.5391 43.5305Z" fill="white"/>
<path d="M25.5425 43.543C27.3325 43.543 28.7825 44.993 28.7825 46.783C28.7825 48.573 27.3325 50.023 25.5425 50.023C23.7525 50.023 22.3125 48.573 22.3125 46.783C22.3125 44.993 23.7625 43.543 25.5425 43.543Z" fill="white"/>
<path d="M25.5425 51.0113C23.2125 51.0113 21.3125 49.1113 21.3125 46.7713C21.3125 44.4313 23.2125 42.5312 25.5425 42.5312C27.8725 42.5312 29.7825 44.4313 29.7825 46.7713C29.7825 49.1113 27.8825 51.0113 25.5425 51.0113ZM25.5425 44.5413C24.3125 44.5413 23.3125 45.5412 23.3125 46.7812C23.3125 48.0213 24.3125 49.0213 25.5425 49.0213C26.7725 49.0213 27.7825 48.0213 27.7825 46.7812C27.7825 45.5412 26.7825 44.5413 25.5425 44.5413Z" fill="white"/>
<path d="M42.0739 43.9583C36.8439 43.9583 32.5938 39.7083 32.5938 34.4883C32.5938 33.9383 33.0437 33.4883 33.5938 33.4883C34.1438 33.4883 34.5938 33.9383 34.5938 34.4883C34.5938 38.6083 37.9539 41.9583 42.0739 41.9583C42.6239 41.9583 43.0739 42.4083 43.0739 42.9583C43.0739 43.5083 42.6239 43.9583 42.0739 43.9583Z" fill="white"/>
<path d="M46.3025 39.7188C48.0925 39.7188 49.5425 41.1688 49.5425 42.9588C49.5425 44.7488 48.0925 46.1988 46.3025 46.1988C44.5125 46.1988 43.0625 44.7488 43.0625 42.9588C43.0625 41.1688 44.5125 39.7188 46.3025 39.7188Z" fill="white"/>
<path d="M46.3025 47.1988C43.9625 47.1988 42.0625 45.2988 42.0625 42.9588C42.0625 40.6188 43.9625 38.7188 46.3025 38.7188C48.6425 38.7188 50.5425 40.6188 50.5425 42.9588C50.5425 45.2988 48.6425 47.1988 46.3025 47.1988ZM46.3025 40.7188C45.0625 40.7188 44.0625 41.7188 44.0625 42.9588C44.0625 44.1988 45.0625 45.1988 46.3025 45.1988C47.5425 45.1988 48.5425 44.1988 48.5425 42.9588C48.5425 41.7188 47.5425 40.7188 46.3025 40.7188Z" fill="white"/>
<path d="M9.02344 43.9583C8.47344 43.9583 8.02344 43.5083 8.02344 42.9583C8.02344 42.4083 8.47344 41.9583 9.02344 41.9583C13.1434 41.9583 16.4934 38.6083 16.4934 34.4883C16.4934 33.9383 16.9434 33.4883 17.4934 33.4883C18.0434 33.4883 18.4934 33.9383 18.4934 34.4883C18.4934 39.7083 14.2434 43.9583 9.02344 43.9583Z" fill="white"/>
<path d="M4.77905 39.7188C6.56905 39.7188 8.00903 41.1688 8.00903 42.9588C8.00903 44.7488 6.56905 46.1988 4.77905 46.1988C2.98905 46.1988 1.53906 44.7488 1.53906 42.9588C1.53906 41.1688 2.98905 39.7188 4.77905 39.7188Z" fill="white"/>
<path d="M4.77905 47.1988C2.43905 47.1988 0.539062 45.2988 0.539062 42.9588C0.539062 40.6188 2.43905 38.7188 4.77905 38.7188C7.11905 38.7188 9.00903 40.6188 9.00903 42.9588C9.00903 45.2988 7.10905 47.1988 4.77905 47.1988ZM4.77905 40.7188C3.54905 40.7188 2.53906 41.7188 2.53906 42.9588C2.53906 44.1988 3.53905 45.1988 4.77905 45.1988C6.01905 45.1988 7.00903 44.1988 7.00903 42.9588C7.00903 41.7188 6.00905 40.7188 4.77905 40.7188Z" fill="white"/>
<path d="M11.0369 5.01172C8.95689 5.01172 6.92688 5.63172 5.20688 6.78172C3.47688 7.93172 2.13688 9.57171 1.33688 11.4917C0.546881 13.4117 0.336845 15.5217 0.736845 17.5617C1.13684 19.6017 2.13684 21.4717 3.60684 22.9417C5.07684 24.4117 6.94685 25.4117 8.98685 25.8117C11.0268 26.2117 13.1369 26.0117 15.0569 25.2117C16.9769 24.4217 18.6169 23.0717 19.7669 21.3417C20.9169 19.6117 21.5369 17.5817 21.5369 15.5117C21.5369 12.7217 20.4269 10.0517 18.4569 8.08173C16.4969 6.11173 13.8169 5.01172 11.0369 5.01172ZM17.0069 12.9817L10.4168 20.4517C10.3068 20.5717 10.1769 20.6717 10.0369 20.7417C9.89689 20.8117 9.73687 20.8517 9.57687 20.8617H9.49685C9.19685 20.8617 8.90686 20.7517 8.68686 20.5517L5.15689 17.4217C4.91689 17.2117 4.76685 16.9017 4.74685 16.5817C4.72685 16.2617 4.83685 15.9417 5.05685 15.7017C5.27685 15.4617 5.57688 15.3117 5.89688 15.2917C6.21688 15.2717 6.53689 15.3817 6.78689 15.6017L9.40689 17.9117L15.1869 11.3517C15.4069 11.1117 15.7069 10.9617 16.0269 10.9417C16.3569 10.9217 16.6668 11.0317 16.9168 11.2417C17.1568 11.4517 17.3069 11.7617 17.3269 12.0817C17.3469 12.4017 17.2369 12.7217 17.0269 12.9617H17.0069V12.9817Z" fill="white"/>
</svg>
