<svg width="53" height="53" viewBox="0 0 53 53" fill="none" xmlns="http://www.w3.org/2000/svg">
<path d="M30.3494 10.48C27.4594 10.48 25.1094 8.12999 25.1094 5.23999C25.1094 2.34999 27.4594 0 30.3494 0C33.2394 0 35.5894 2.34999 35.5894 5.23999C35.5894 8.12999 33.2394 10.48 30.3494 10.48ZM30.3494 2.00999C28.5594 2.00999 27.1094 3.46 27.1094 5.25C27.1094 7.04 28.5594 8.48999 30.3494 8.48999C32.1394 8.48999 33.5894 7.04 33.5894 5.25C33.5894 3.46 32.1394 2.00999 30.3494 2.00999Z" fill="white"/>
<path d="M47.3025 23.1987C44.4125 23.1987 42.0625 20.8487 42.0625 17.9587C42.0625 15.0687 44.4125 12.7188 47.3025 12.7188C50.1925 12.7188 52.5425 15.0687 52.5425 17.9587C52.5425 20.8487 50.1925 23.1987 47.3025 23.1987ZM47.3025 14.7188C45.5125 14.7188 44.0625 16.1687 44.0625 17.9587C44.0625 19.7487 45.5125 21.1987 47.3025 21.1987C49.0925 21.1987 50.5425 19.7487 50.5425 17.9587C50.5425 16.1687 49.0925 14.7188 47.3025 14.7188Z" fill="white"/>
<path d="M30.3467 23.1991C30.1267 23.1991 29.9067 23.1291 29.7267 22.9791C29.2967 22.6291 29.2267 22.0091 29.5667 21.5691L46.5167 0.379069C46.8667 -0.0509308 47.4967 -0.120919 47.9267 0.219081C48.3567 0.569081 48.4267 1.18907 48.0867 1.62907L31.1367 22.8191C30.9367 23.0691 30.6467 23.1991 30.3567 23.1991H30.3467Z" fill="white"/>
<path d="M1.39906 43.0798C0.829063 41.5498 0.539062 39.9399 0.539062 38.2999C0.539062 30.7399 6.68906 24.5898 14.2491 24.5898C17.3691 24.5898 20.3691 25.6598 22.7791 27.5698V26.3798H24.7791V32.5298L23.0291 30.5498C20.8091 28.0298 17.5991 26.5898 14.2491 26.5898C7.78906 26.5898 2.53906 31.8399 2.53906 38.2999C2.53906 39.6999 2.78906 41.0798 3.26906 42.3798L1.39906 43.0798Z" fill="white"/>
<path d="M14.2487 52.0117C11.1287 52.0117 8.12875 50.9417 5.71875 49.0317V50.2117H3.71875V44.0617L5.46875 46.0417C7.69875 48.5617 10.8987 50.0017 14.2487 50.0017C20.7087 50.0017 25.9588 44.7517 25.9588 38.2917C25.9588 36.8917 25.7087 35.5117 25.2287 34.2117L27.1087 33.5117C27.6787 35.0417 27.9688 36.6517 27.9688 38.2917C27.9688 45.8517 21.8187 52.0017 14.2587 52.0017L14.2487 52.0117Z" fill="white"/>
<path d="M14.2525 10.4781C13.9925 10.4781 13.7425 10.3781 13.5425 10.1881C13.1525 9.79811 13.1525 9.16813 13.5425 8.77813L14.7825 7.53812C15.3925 6.92812 15.7325 6.11813 15.7325 5.24813C15.7325 4.37813 15.3925 3.56812 14.7825 2.95812L13.5425 1.71813C13.1525 1.32813 13.1525 0.698125 13.5425 0.308125C13.9325 -0.081875 14.5625 -0.081875 14.9525 0.308125L16.1925 1.54812C17.1825 2.53812 17.7225 3.84813 17.7225 5.24813C17.7225 6.64813 17.1825 7.95812 16.1925 8.94812L14.9525 10.1881C14.7525 10.3881 14.5025 10.4781 14.2425 10.4781H14.2525Z" fill="white"/>
<path d="M1.53906 18.9583C0.989062 18.9583 0.539062 18.5083 0.539062 17.9583V11.5983C0.539062 7.53828 3.83906 4.23828 7.89906 4.23828H16.7391C17.2891 4.23828 17.7391 4.68828 17.7391 5.23828C17.7391 5.78828 17.2891 6.23828 16.7391 6.23828H7.89906C4.94906 6.23828 2.53906 8.63828 2.53906 11.5983V17.9583C2.53906 18.5083 2.08906 18.9583 1.53906 18.9583Z" fill="white"/>
<path d="M38.8316 52.0094C38.5716 52.0094 38.3216 51.9094 38.1216 51.7194L36.8816 50.4794C35.8916 49.4894 35.3516 48.1794 35.3516 46.7794C35.3516 45.3794 35.8916 44.0694 36.8816 43.0794L38.1216 41.8394C38.5116 41.4494 39.1416 41.4494 39.5316 41.8394C39.9216 42.2294 39.9216 42.8594 39.5316 43.2494L38.2916 44.4894C37.6816 45.0994 37.3416 45.9094 37.3416 46.7794C37.3416 47.6494 37.6816 48.4594 38.2916 49.0694L39.5316 50.3094C39.9216 50.6994 39.9216 51.3294 39.5316 51.7194C39.3316 51.9194 39.0816 52.0094 38.8216 52.0094H38.8316Z" fill="white"/>
<path d="M45.1837 47.7708H36.3438C35.7937 47.7708 35.3438 47.3208 35.3438 46.7708C35.3438 46.2208 35.7937 45.7708 36.3438 45.7708H45.1837C48.1337 45.7708 50.5437 43.3708 50.5437 40.4108V34.0508C50.5437 33.5008 50.9937 33.0508 51.5437 33.0508C52.0937 33.0508 52.5437 33.5008 52.5437 34.0508V40.4108C52.5437 44.4708 49.2437 47.7708 45.1837 47.7708Z" fill="white"/>
<path d="M14.0391 29.0117C19.2891 29.0117 23.5391 33.2617 23.5391 38.5117C23.5391 43.7617 19.2891 48.0117 14.0391 48.0117C8.78906 48.0117 4.53906 43.7617 4.53906 38.5117C4.53906 33.2617 8.78906 29.0117 14.0391 29.0117ZM10.8191 37.9117H9.53906V39.1117H10.8191V44.0117H14.4391C14.4891 44.0117 19.5391 44.4117 19.5391 38.6117C19.5391 32.8717 14.6591 33.0217 13.9291 33.0217H10.8191V37.9217V37.9117ZM14.2891 35.0417C14.8291 35.0417 17.5191 35.2617 17.5191 38.6417C17.5191 42.0217 14.7491 41.9717 14.3591 41.9717H12.8591V39.1117H15.1091V37.9117H12.8591V35.0517H14.2891V35.0417Z" fill="white"/>
</svg>
