<svg width="50" height="50" viewBox="0 0 50 50" fill="none" xmlns="http://www.w3.org/2000/svg">
<path d="M25.0086 12.1602C17.9192 12.1602 12.1797 17.9059 12.1797 24.9891C12.1797 32.0786 17.9254 37.818 25.0086 37.818C32.0981 37.818 37.8376 32.0723 37.8376 24.9891C37.8376 17.8996 32.0918 12.1602 25.0086 12.1602ZM25.0086 33.316C20.4066 33.316 16.6817 29.589 16.6817 24.9891C16.6817 20.3892 20.4087 16.6622 25.0086 16.6622C29.6085 16.6622 33.3356 20.3892 33.3356 24.9891C33.3376 29.589 29.6106 33.316 25.0086 33.316Z" fill="url(#paint0_linear_9992_1078)"/>
<path d="M35.3082 0.157053C30.7083 -0.0575268 19.3147 -0.0471103 14.7106 0.157053C10.6649 0.346633 7.09618 1.3237 4.21915 4.20073C-0.5891 9.00898 0.025473 15.488 0.025473 24.99C0.025473 34.7148 -0.516184 41.0438 4.21915 45.7792C9.04615 50.6041 15.6189 49.9729 25.0084 49.9729C34.6415 49.9729 37.9665 49.9791 41.3727 48.6604C46.0038 46.8625 49.4996 42.723 49.8413 35.2877C50.0579 30.6857 50.0454 19.2942 49.8413 14.6901C49.4288 5.9132 44.7184 0.590379 35.3082 0.157053ZM42.5893 42.598C39.4373 45.75 35.0644 45.4688 24.948 45.4688C14.5315 45.4688 10.3545 45.6229 7.3066 42.5667C3.79624 39.073 4.43165 33.4627 4.43165 24.9566C4.43165 13.4464 3.25042 5.15697 14.8023 4.56531C17.4564 4.47156 18.2377 4.44031 24.9188 4.44031L25.0125 4.50281C36.1144 4.50281 44.8247 3.34033 45.3476 14.8901C45.4663 17.5255 45.4934 18.3172 45.4934 24.9879C45.4913 35.2835 45.6872 39.4855 42.5893 42.598Z" fill="url(#paint1_linear_9992_1078)"/>
<path d="M38.3494 14.652C40.0051 14.652 41.3473 13.3098 41.3473 11.6541C41.3473 9.99844 40.0051 8.65625 38.3494 8.65625C36.6938 8.65625 35.3516 9.99844 35.3516 11.6541C35.3516 13.3098 36.6938 14.652 38.3494 14.652Z" fill="url(#paint2_linear_9992_1078)"/>
<defs>
<linearGradient id="paint0_linear_9992_1078" x1="33.8275" y1="16.6638" x2="11.7169" y2="35.5173" gradientUnits="userSpaceOnUse">
<stop stop-color="#EA96FE"/>
<stop offset="0.5" stop-color="#B15AF7"/>
<stop offset="1" stop-color="#832AF2"/>
</linearGradient>
<linearGradient id="paint1_linear_9992_1078" x1="42.1848" y1="8.77628" x2="-0.902418" y2="45.5158" gradientUnits="userSpaceOnUse">
<stop stop-color="#EA96FE"/>
<stop offset="0.5" stop-color="#B15AF7"/>
<stop offset="1" stop-color="#832AF2"/>
</linearGradient>
<linearGradient id="paint2_linear_9992_1078" x1="40.4102" y1="9.70865" x2="35.2434" y2="14.1143" gradientUnits="userSpaceOnUse">
<stop stop-color="#EA96FE"/>
<stop offset="0.5" stop-color="#B15AF7"/>
<stop offset="1" stop-color="#832AF2"/>
</linearGradient>
</defs>
</svg>
