<svg width="80" height="80" viewBox="0 0 80 80" fill="none" xmlns="http://www.w3.org/2000/svg">
<mask id="mask0_9985_483" style="mask-type:alpha" maskUnits="userSpaceOnUse" x="0" y="0" width="80" height="80">
<rect width="80" height="80" rx="10" fill="#0E0D0D"/>
</mask>
<g mask="url(#mask0_9985_483)">
<path d="M32.2644 1.76568C16.8297 4.87107 4.69263 17.089 1.70623 32.5665C1.53176 33.4707 2.24006 34.2894 3.16101 34.2894C3.90303 34.2894 4.53167 33.7489 4.67468 33.0208C7.46224 18.8287 18.5895 7.62716 32.7421 4.73048C33.4648 4.58258 33.9989 3.95626 33.9989 3.21867C33.9989 2.2928 33.1721 1.58306 32.2644 1.76568Z" fill="url(#paint0_linear_9985_483)"/>
<path d="M33.0029 75.3195C18.5003 72.4632 7.12406 60.8976 4.54787 46.2965C4.41707 45.5551 3.78289 44.9988 3.03007 44.9988C2.12104 44.9988 1.41635 45.7979 1.57131 46.6936C4.32563 62.6145 16.7331 75.228 32.5472 78.2877C33.4517 78.4627 34.2709 77.7543 34.2709 76.833C34.2709 76.0913 33.7307 75.4628 33.0029 75.3195Z" fill="url(#paint1_linear_9985_483)"/>
<path d="M75.4988 46.0127C72.9678 61.0627 61.0984 72.9436 46.0542 75.4917C45.3082 75.6181 44.7461 76.2542 44.7461 77.0108C44.7461 77.9157 45.5382 78.619 46.4308 78.4709C62.832 75.7492 75.7754 62.7933 78.4784 46.3858C78.6254 45.4937 77.9222 44.7028 77.0182 44.7028C76.2608 44.7028 75.6244 45.2659 75.4988 46.0127Z" fill="url(#paint2_linear_9985_483)"/>
<path d="M46.1788 4.52718C60.9089 7.07551 72.5719 18.5756 75.3619 33.2215C75.5014 33.9535 76.1317 34.4988 76.8769 34.4988C77.7943 34.4988 78.5016 33.686 78.3329 32.7842C75.346 16.8147 62.6267 4.27271 46.566 1.54933C45.6718 1.3977 44.876 2.10175 44.876 3.00873C44.876 3.76341 45.4351 4.39853 46.1788 4.52718Z" fill="url(#paint3_linear_9985_483)"/>
<path fill-rule="evenodd" clip-rule="evenodd" d="M58.3382 20.5029C58.8589 20.6175 59.325 20.9047 59.6586 21.3164C59.9923 21.7282 60.1742 22.2407 60.1742 22.7686V45.9443C60.1739 48.2363 59.6017 50.4929 58.5091 52.5137C57.4165 54.5345 55.8372 56.2578 53.9105 57.5293L39.0765 67.3193L24.2425 57.5293C22.3163 56.2581 20.7365 54.5359 19.6439 52.5156C18.5513 50.495 17.9794 48.2382 17.9789 45.9463V22.7686C17.979 22.2407 18.1608 21.7282 18.4945 21.3164C18.8282 20.9047 19.2943 20.6175 19.8148 20.5029L39.0765 15L58.3382 20.5029ZM21.3607 22.1719C20.882 22.2771 20.4538 22.5406 20.1468 22.9189C19.8399 23.2975 19.6724 23.7686 19.6722 24.2539V45.5635C19.6728 47.6705 20.1992 49.7449 21.2044 51.6025C22.2097 53.4598 23.6629 55.0433 25.4349 56.2119L39.0814 65.2129L52.7289 56.2119C54.5013 55.043 55.9551 53.4593 56.9603 51.6016C57.9655 49.7438 58.4913 47.6687 58.4916 45.5615V24.2539C58.4915 23.7686 58.324 23.2975 58.0169 22.9189C57.7101 22.5406 57.2818 22.2772 56.8031 22.1719L39.0814 17.1123L21.3607 22.1719Z" fill="url(#paint4_linear_9985_483)"/>
<path d="M39.3789 40.8834C40.4493 40.8835 41.3209 41.7546 41.3213 42.8248C41.3213 43.4738 40.9981 44.0781 40.457 44.4401C40.4157 44.4677 40.394 44.5171 40.4023 44.5661L40.9844 47.9225H37.7744L38.3564 44.5661C38.3647 44.5171 38.343 44.4677 38.3018 44.4401C37.7606 44.0781 37.4375 43.4738 37.4375 42.8248C37.4379 41.7547 38.3087 40.8837 39.3789 40.8834Z" fill="url(#paint5_linear_9985_483)"/>
<path d="M39.3125 31.3161C41.7547 31.3161 43.7419 33.3026 43.7422 35.7448V38.0719C42.2897 37.7594 40.7995 37.6004 39.3135 37.6002C37.8281 37.6002 36.3376 37.7587 34.8828 38.0709V35.7448C34.8831 33.3026 36.8702 31.3161 39.3125 31.3161Z" fill="url(#paint6_linear_9985_483)"/>
<path fill-rule="evenodd" clip-rule="evenodd" d="M54.123 25.1706C54.529 25.2593 54.8922 25.4808 55.1523 25.7995C55.4127 26.1182 55.5547 26.5148 55.5547 26.9235V44.8668C55.5544 46.6412 55.108 48.3884 54.2559 49.9528C53.4036 51.5172 52.1717 52.8513 50.6689 53.8356L39.0986 61.4147L27.5283 53.8356C26.0259 52.8514 24.7937 51.5178 23.9414 49.9538C23.0891 48.3894 22.643 46.6422 22.6426 44.8678V26.9235C22.6427 26.5148 22.7847 26.1182 23.0449 25.7995C23.3052 25.4808 23.6683 25.2592 24.0742 25.1706L39.0986 20.9098L54.123 25.1706ZM39.3125 28.9948C35.5904 28.9949 32.5619 32.0228 32.5615 35.7448V38.6002C32.5615 38.644 32.5073 38.7178 32.4648 38.7321C32.1 38.8537 31.8035 38.9595 31.5322 39.0641C31.2088 39.1888 30.9651 39.5474 30.9648 39.8981V48.7575C30.965 49.1058 31.2069 49.4649 31.5283 49.5924C34.0166 50.5784 36.6358 51.0778 39.3125 51.0778C41.9891 51.0778 44.6083 50.5784 47.0967 49.5924C47.418 49.465 47.66 49.1058 47.6602 48.7575V39.8981C47.6599 39.5474 47.4164 39.189 47.0928 39.0641C46.8213 38.9595 46.5249 38.8538 46.1602 38.7321C46.1178 38.718 46.0635 38.644 46.0635 38.6002V35.7448C46.063 32.0228 43.0347 28.9948 39.3125 28.9948Z" fill="url(#paint7_linear_9985_483)"/>
<path d="M42.1024 2.54991C42.1024 3.95819 40.9607 5.09982 39.5524 5.09982C38.1441 5.09982 37.0024 3.95819 37.0024 2.54991C37.0024 1.14163 38.1441 0 39.5524 0C40.9607 0 42.1024 1.14163 42.1024 2.54991Z" fill="url(#paint8_linear_9985_483)"/>
<path d="M42.1024 77.451C42.1024 78.8593 40.9607 80.0009 39.5524 80.0009C38.1441 80.0009 37.0024 78.8593 37.0024 77.451C37.0024 76.0427 38.1441 74.9011 39.5524 74.9011C40.9607 74.9011 42.1024 76.0427 42.1024 77.451Z" fill="url(#paint9_linear_9985_483)"/>
<path d="M2.55001 36.8985C3.95834 36.8985 5.10002 38.0401 5.10002 39.4484C5.10002 40.8566 3.95834 41.9983 2.55001 41.9983C1.14168 41.9983 0 40.8566 0 39.4484C0 38.0401 1.14168 36.8985 2.55001 36.8985Z" fill="url(#paint10_linear_9985_483)"/>
<path d="M77.463 36.8992C78.8713 36.8992 80.013 38.0408 80.013 39.4491C80.013 40.8574 78.8713 41.999 77.463 41.999C76.0547 41.999 74.913 40.8574 74.913 39.4491C74.913 38.0408 76.0547 36.8992 77.463 36.8992Z" fill="url(#paint11_linear_9985_483)"/>
</g>
<defs>
<linearGradient id="paint0_linear_9985_483" x1="65.943" y1="12.3816" x2="9.73761" y2="64.1288" gradientUnits="userSpaceOnUse">
<stop stop-color="#EA96FE"/>
<stop offset="0.5" stop-color="#B15AF7"/>
<stop offset="1" stop-color="#832AF2"/>
</linearGradient>
<linearGradient id="paint1_linear_9985_483" x1="65.943" y1="12.3816" x2="9.73761" y2="64.1288" gradientUnits="userSpaceOnUse">
<stop stop-color="#EA96FE"/>
<stop offset="0.5" stop-color="#B15AF7"/>
<stop offset="1" stop-color="#832AF2"/>
</linearGradient>
<linearGradient id="paint2_linear_9985_483" x1="65.943" y1="12.3816" x2="9.73761" y2="64.1288" gradientUnits="userSpaceOnUse">
<stop stop-color="#EA96FE"/>
<stop offset="0.5" stop-color="#B15AF7"/>
<stop offset="1" stop-color="#832AF2"/>
</linearGradient>
<linearGradient id="paint3_linear_9985_483" x1="65.943" y1="12.3816" x2="9.73761" y2="64.1288" gradientUnits="userSpaceOnUse">
<stop stop-color="#EA96FE"/>
<stop offset="0.5" stop-color="#B15AF7"/>
<stop offset="1" stop-color="#832AF2"/>
</linearGradient>
<linearGradient id="paint4_linear_9985_483" x1="65.943" y1="12.3816" x2="9.73761" y2="64.1288" gradientUnits="userSpaceOnUse">
<stop stop-color="#EA96FE"/>
<stop offset="0.5" stop-color="#B15AF7"/>
<stop offset="1" stop-color="#832AF2"/>
</linearGradient>
<linearGradient id="paint5_linear_9985_483" x1="65.943" y1="12.3816" x2="9.73761" y2="64.1288" gradientUnits="userSpaceOnUse">
<stop stop-color="#EA96FE"/>
<stop offset="0.5" stop-color="#B15AF7"/>
<stop offset="1" stop-color="#832AF2"/>
</linearGradient>
<linearGradient id="paint6_linear_9985_483" x1="65.943" y1="12.3816" x2="9.73761" y2="64.1288" gradientUnits="userSpaceOnUse">
<stop stop-color="#EA96FE"/>
<stop offset="0.5" stop-color="#B15AF7"/>
<stop offset="1" stop-color="#832AF2"/>
</linearGradient>
<linearGradient id="paint7_linear_9985_483" x1="65.943" y1="12.3816" x2="9.73761" y2="64.1288" gradientUnits="userSpaceOnUse">
<stop stop-color="#EA96FE"/>
<stop offset="0.5" stop-color="#B15AF7"/>
<stop offset="1" stop-color="#832AF2"/>
</linearGradient>
<linearGradient id="paint8_linear_9985_483" x1="65.943" y1="12.3816" x2="9.73761" y2="64.1288" gradientUnits="userSpaceOnUse">
<stop stop-color="#EA96FE"/>
<stop offset="0.5" stop-color="#B15AF7"/>
<stop offset="1" stop-color="#832AF2"/>
</linearGradient>
<linearGradient id="paint9_linear_9985_483" x1="65.943" y1="12.3816" x2="9.73761" y2="64.1288" gradientUnits="userSpaceOnUse">
<stop stop-color="#EA96FE"/>
<stop offset="0.5" stop-color="#B15AF7"/>
<stop offset="1" stop-color="#832AF2"/>
</linearGradient>
<linearGradient id="paint10_linear_9985_483" x1="65.943" y1="12.3816" x2="9.73761" y2="64.1288" gradientUnits="userSpaceOnUse">
<stop stop-color="#EA96FE"/>
<stop offset="0.5" stop-color="#B15AF7"/>
<stop offset="1" stop-color="#832AF2"/>
</linearGradient>
<linearGradient id="paint11_linear_9985_483" x1="65.943" y1="12.3816" x2="9.73761" y2="64.1288" gradientUnits="userSpaceOnUse">
<stop stop-color="#EA96FE"/>
<stop offset="0.5" stop-color="#B15AF7"/>
<stop offset="1" stop-color="#832AF2"/>
</linearGradient>
</defs>
</svg>
