<svg width="50" height="29" viewBox="0 0 50 29" fill="none" xmlns="http://www.w3.org/2000/svg">
<path d="M28.2025 14.198C28.2025 22.0394 21.8892 28.3961 14.1013 28.3961C6.31333 28.3961 0 22.0394 0 14.198C0 6.35669 6.31333 0 14.1013 0C21.8891 0 28.2025 6.35669 28.2025 14.198Z" fill="url(#paint0_linear_9992_1088)"/>
<path d="M43.6716 14.197C43.6716 21.5783 40.5149 27.5619 36.6209 27.5619C32.727 27.5619 29.5703 21.5783 29.5703 14.197C29.5703 6.81568 32.727 0.832031 36.6209 0.832031C40.515 0.832031 43.6716 6.81568 43.6716 14.197Z" fill="url(#paint1_linear_9992_1088)"/>
<path d="M49.9985 14.1971C49.9985 20.8104 48.8883 26.1715 47.5187 26.1715C46.1491 26.1715 45.0391 20.8104 45.0391 14.1971C45.0391 7.58375 46.1491 2.22266 47.5187 2.22266C48.8883 2.22266 49.9985 7.58375 49.9985 14.1971Z" fill="url(#paint2_linear_9992_1088)"/>
<defs>
<linearGradient id="paint0_linear_9992_1088" x1="23.7948" y1="4.98424" x2="-0.64846" y2="25.6847" gradientUnits="userSpaceOnUse">
<stop stop-color="#EA96FE"/>
<stop offset="0.5" stop-color="#B15AF7"/>
<stop offset="1" stop-color="#832AF2"/>
</linearGradient>
<linearGradient id="paint1_linear_9992_1088" x1="41.4677" y1="5.52381" x2="24.0127" y2="13.3757" gradientUnits="userSpaceOnUse">
<stop stop-color="#EA96FE"/>
<stop offset="0.5" stop-color="#B15AF7"/>
<stop offset="1" stop-color="#832AF2"/>
</linearGradient>
<linearGradient id="paint2_linear_9992_1088" x1="49.2234" y1="6.42629" x2="42.0654" y2="7.69025" gradientUnits="userSpaceOnUse">
<stop stop-color="#EA96FE"/>
<stop offset="0.5" stop-color="#B15AF7"/>
<stop offset="1" stop-color="#832AF2"/>
</linearGradient>
</defs>
</svg>
