<svg width="50" height="51" viewBox="0 0 50 51" fill="none" xmlns="http://www.w3.org/2000/svg">
<path d="M26.7541 25.7557C26.5911 25.7557 26.4281 25.7557 26.2651 25.7353L22.2098 25.4703C20.5082 25.3582 19.0817 24.7365 18.0628 23.6664C17.0745 22.6167 16.5752 21.2307 16.6771 19.7632C16.779 18.2956 17.4413 16.9809 18.5519 16.0739C19.6931 15.1363 21.2011 14.698 22.8925 14.8102L25.8575 14.9936C26.4179 15.0242 26.8458 15.5134 26.8153 16.0739C26.7847 16.6344 26.2956 17.0726 25.7352 17.0319L22.7702 16.8484C21.5984 16.7771 20.5795 17.0522 19.8357 17.6535C19.1632 18.2039 18.7659 18.9988 18.7047 19.8956C18.6436 20.7925 18.9391 21.6384 19.5402 22.26C20.2025 22.953 21.1705 23.3607 22.3422 23.432L26.3975 23.697C28.6799 23.8499 30.3305 22.5862 30.4528 20.6498C30.4732 20.3441 30.4528 20.0485 30.3917 19.7632C30.2796 19.2128 30.6362 18.6727 31.1864 18.5606C31.7366 18.4485 32.2767 18.8052 32.3887 19.3555C32.4804 19.8141 32.5212 20.3033 32.4906 20.7823C32.297 23.7276 29.923 25.7557 26.7541 25.7557Z" fill="white"/>
<path d="M36.1544 26.3591C35.9913 26.3591 35.8181 26.3591 35.6449 26.3387L32.69 26.1552C32.1296 26.1247 31.7017 25.6355 31.7323 25.075C31.7628 24.5144 32.2519 24.0966 32.8123 24.117L35.7774 24.3004C36.9593 24.3718 37.968 24.0966 38.7118 23.4953C39.3843 22.945 39.7817 22.15 39.8428 21.2532C39.904 20.3564 39.6085 19.5105 39.0073 18.8888C38.345 18.1958 37.377 17.7881 36.2053 17.7168L32.15 17.4518C29.888 17.299 28.217 18.5627 28.0947 20.499C28.0744 20.8048 28.0947 21.1003 28.1559 21.3857C28.268 21.936 27.9113 22.4762 27.3611 22.5883C26.8109 22.7004 26.2709 22.3437 26.1588 21.7933C26.0671 21.3347 26.0263 20.8455 26.0569 20.3666C26.2505 17.2786 28.8589 15.1995 32.2825 15.4136L36.3378 15.6785C38.0393 15.7906 39.4658 16.4123 40.4847 17.4824C41.4731 18.5321 41.9724 19.9079 41.8705 21.3857C41.7788 22.8532 41.1063 24.1679 39.9957 25.075C38.9666 25.9208 37.642 26.3489 36.1544 26.3489V26.3591Z" fill="white"/>
<path d="M29.9507 40.5835C18.8954 40.5835 9.89844 31.5845 9.89844 20.5269C9.89844 9.46925 18.8954 0.480469 29.9507 0.480469C41.0059 0.480469 50.0029 9.47944 50.0029 20.5371C50.0029 31.5947 41.0059 40.5937 29.9507 40.5937V40.5835ZM29.9507 2.51874C20.0163 2.51874 11.9363 10.6005 11.9363 20.5371C11.9363 30.4736 20.0163 38.5554 29.9507 38.5554C39.8851 38.5554 47.9651 30.4736 47.9651 20.5371C47.9651 10.6005 39.8851 2.51874 29.9507 2.51874Z" fill="white"/>
<path d="M5.11495 50.4821C3.81074 50.4821 2.49634 49.9827 1.4978 48.984C-0.499268 46.9864 -0.499268 43.7456 1.4978 41.7481L13.1848 30.0586L14.6214 31.4956L2.93447 43.1851C1.73215 44.3876 1.73215 46.3342 2.93447 47.5368C4.13679 48.7394 6.08292 48.7394 7.28524 47.5368L18.9722 35.8473L20.4089 37.2843L8.72191 48.9738C7.72337 49.9725 6.41916 50.4719 5.10476 50.4719L5.11495 50.4821Z" fill="white"/>
<path d="M14 31.5L8.75 35.9609L14.5355 41.7477L19.5 36.5L14 31.5Z" fill="white"/>
</svg>
