<svg width="51" height="52" viewBox="0 0 51 52" fill="none" xmlns="http://www.w3.org/2000/svg">
<path d="M25.5469 40.0078C17.8269 40.0078 11.5469 33.7278 11.5469 26.0078C11.5469 18.2878 17.8269 12.0078 25.5469 12.0078C33.2669 12.0078 39.5469 18.2878 39.5469 26.0078C39.5469 33.7278 33.2669 40.0078 25.5469 40.0078ZM25.5469 14.0078C18.9269 14.0078 13.5469 19.3878 13.5469 26.0078C13.5469 32.6278 18.9269 38.0078 25.5469 38.0078C32.1669 38.0078 37.5469 32.6278 37.5469 26.0078C37.5469 19.3878 32.1669 14.0078 25.5469 14.0078Z" fill="white"/>
<path d="M22.5469 20.0078C22.5469 21.6178 21.2069 22.9178 19.5469 22.9178C19.5469 27.3678 20.3169 31.6578 25.5469 33.0078C30.7769 31.6478 31.5469 27.3578 31.5469 22.9178C29.8869 22.9178 28.5469 21.6178 28.5469 20.0078H22.5469Z" fill="white"/>
<path d="M25.5469 34.0078C25.4669 34.0078 25.3769 33.9978 25.2969 33.9778C19.3469 32.4378 18.5469 27.5178 18.5469 22.9178C18.5469 22.3678 18.9969 21.9178 19.5469 21.9178C20.6469 21.9178 21.5469 21.0578 21.5469 20.0078C21.5469 19.4578 21.9969 19.0078 22.5469 19.0078H28.5469C29.0969 19.0078 29.5469 19.4578 29.5469 20.0078C29.5469 21.0578 30.4469 21.9178 31.5469 21.9178C32.0969 21.9178 32.5469 22.3678 32.5469 22.9178C32.5469 27.5178 31.7469 32.4378 25.7969 33.9778C25.7169 33.9978 25.6269 34.0078 25.5469 34.0078ZM20.5569 23.7878C20.6669 27.8978 21.6769 30.8578 25.5469 31.9678C29.4169 30.8478 30.4169 27.8978 30.5369 23.7878C29.1469 23.4378 28.0469 22.3678 27.6769 21.0078H23.4069C23.0369 22.3678 21.9369 23.4378 20.5469 23.7878H20.5569Z" fill="white"/>
<path d="M25.5416 7.86828C23.6416 7.86828 22.1016 6.32828 22.1016 4.42828C22.1016 2.52828 23.6416 0.988281 25.5416 0.988281C27.4416 0.988281 28.9816 2.52828 28.9816 4.42828C28.9816 6.32828 27.4416 7.86828 25.5416 7.86828ZM25.5416 2.98828C24.7516 2.98828 24.1016 3.63828 24.1016 4.42828C24.1016 5.21828 24.7516 5.86828 25.5416 5.86828C26.3316 5.86828 26.9816 5.21828 26.9816 4.42828C26.9816 3.63828 26.3316 2.98828 25.5416 2.98828Z" fill="white"/>
<path d="M25.5469 14.0087C24.9969 14.0087 24.5469 13.5587 24.5469 13.0087V7.21875C24.5469 6.66875 24.9969 6.21875 25.5469 6.21875C26.0969 6.21875 26.5469 6.66875 26.5469 7.21875V13.0087C26.5469 13.5587 26.0969 14.0087 25.5469 14.0087Z" fill="white"/>
<path d="M10.2866 14.1897C9.40656 14.1897 8.52656 13.8497 7.85656 13.1797C6.51656 11.8397 6.51656 9.64969 7.85656 8.30969C9.19656 6.96969 11.3766 6.96969 12.7266 8.30969C14.0666 9.64969 14.0666 11.8397 12.7266 13.1797C12.0566 13.8497 11.1766 14.1897 10.2966 14.1897H10.2866ZM10.2866 9.30969C9.91656 9.30969 9.54657 9.44969 9.26657 9.72969C8.70657 10.2897 8.70657 11.2097 9.26657 11.7697C9.82657 12.3297 10.7466 12.3297 11.3066 11.7697C11.8666 11.2097 11.8666 10.2897 11.3066 9.72969C11.0266 9.44969 10.6566 9.30969 10.2866 9.30969Z" fill="white"/>
<path d="M16.0425 17.5091C15.7825 17.5091 15.5325 17.4091 15.3325 17.2191L11.5425 13.4291C11.1525 13.0391 11.1525 12.4091 11.5425 12.0191C11.9325 11.6291 12.5625 11.6291 12.9525 12.0191L16.7425 15.8091C17.1325 16.1991 17.1325 16.8291 16.7425 17.2191C16.5425 17.4191 16.2925 17.5091 16.0325 17.5091H16.0425Z" fill="white"/>
<path d="M3.96344 29.4464C2.06344 29.4464 0.523438 27.9064 0.523438 26.0064C0.523438 24.1064 2.06344 22.5664 3.96344 22.5664C5.86344 22.5664 7.40344 24.1064 7.40344 26.0064C7.40344 27.9064 5.86344 29.4464 3.96344 29.4464ZM3.96344 24.5664C3.17344 24.5664 2.52344 25.2164 2.52344 26.0064C2.52344 26.7964 3.17344 27.4464 3.96344 27.4464C4.75344 27.4464 5.40344 26.7964 5.40344 26.0064C5.40344 25.2164 4.75344 24.5664 3.96344 24.5664Z" fill="white"/>
<path d="M12.47 27.0078H6.75C6.2 27.0078 5.75 26.5578 5.75 26.0078C5.75 25.4578 6.2 25.0078 6.75 25.0078H12.47C13.02 25.0078 13.47 25.4578 13.47 26.0078C13.47 26.5578 13.02 27.0078 12.47 27.0078Z" fill="white"/>
<path d="M10.2866 44.7092C9.40656 44.7092 8.52656 44.3692 7.85656 43.6992C6.51656 42.3592 6.51656 40.1692 7.85656 38.8292C9.19656 37.4892 11.3766 37.4892 12.7266 38.8292C14.0666 40.1692 14.0666 42.3592 12.7266 43.6992C12.0566 44.3692 11.1766 44.7092 10.2966 44.7092H10.2866ZM10.2866 39.8292C9.91656 39.8292 9.54657 39.9692 9.26657 40.2492C8.70657 40.8092 8.70657 41.7292 9.26657 42.2892C9.82657 42.8492 10.7466 42.8492 11.3066 42.2892C11.8666 41.7292 11.8666 40.8092 11.3066 40.2492C11.0266 39.9692 10.6566 39.8292 10.2866 39.8292Z" fill="white"/>
<path d="M12.2525 40.2881C11.9925 40.2881 11.7425 40.1881 11.5425 39.9981C11.1525 39.6081 11.1525 38.9781 11.5425 38.5881L15.3325 34.8081C15.7225 34.4181 16.3525 34.4181 16.7425 34.8081C17.1325 35.1981 17.1325 35.8281 16.7425 36.2181L12.9525 39.9981C12.7525 40.1881 12.5025 40.2881 12.2425 40.2881H12.2525Z" fill="white"/>
<path d="M25.5416 51.0284C23.6416 51.0284 22.1016 49.4884 22.1016 47.5884C22.1016 45.6884 23.6416 44.1484 25.5416 44.1484C27.4416 44.1484 28.9816 45.6884 28.9816 47.5884C28.9816 49.4884 27.4416 51.0284 25.5416 51.0284ZM25.5416 46.1484C24.7516 46.1484 24.1016 46.7984 24.1016 47.5884C24.1016 48.3784 24.7516 49.0284 25.5416 49.0284C26.3316 49.0284 26.9816 48.3784 26.9816 47.5884C26.9816 46.7984 26.3316 46.1484 25.5416 46.1484Z" fill="white"/>
<path d="M25.5469 45.7981C24.9969 45.7981 24.5469 45.3481 24.5469 44.7981V39.0781C24.5469 38.5281 24.9969 38.0781 25.5469 38.0781C26.0969 38.0781 26.5469 38.5281 26.5469 39.0781V44.7981C26.5469 45.3481 26.0969 45.7981 25.5469 45.7981Z" fill="white"/>
<path d="M40.8022 44.7092C39.9222 44.7092 39.0422 44.3692 38.3722 43.6992C37.0322 42.3592 37.0322 40.1692 38.3722 38.8292C39.7122 37.4892 41.9022 37.4892 43.2422 38.8292C43.8922 39.4792 44.2522 40.3392 44.2522 41.2592C44.2522 42.1792 43.8922 43.0392 43.2422 43.6892C42.5722 44.3592 41.6922 44.6992 40.8122 44.6992L40.8022 44.7092ZM40.8022 39.8292C40.4322 39.8292 40.0622 39.9692 39.7822 40.2492C39.2222 40.8092 39.2222 41.7292 39.7822 42.2892C40.3422 42.8492 41.2622 42.8492 41.8222 42.2892C42.0922 42.0192 42.2422 41.6592 42.2422 41.2692C42.2422 40.8792 42.0922 40.5192 41.8222 40.2492C41.5422 39.9692 41.1722 39.8292 40.8022 39.8292Z" fill="white"/>
<path d="M38.8316 40.2881C38.5716 40.2881 38.3215 40.1881 38.1215 39.9981L34.3316 36.2181C33.9416 35.8281 33.9416 35.1981 34.3316 34.8081C34.7216 34.4181 35.3516 34.4181 35.7416 34.8081L39.5315 38.5881C39.9215 38.9781 39.9215 39.6081 39.5315 39.9981C39.3315 40.1981 39.0816 40.2881 38.8216 40.2881H38.8316Z" fill="white"/>
<path d="M47.1197 29.4464C45.2197 29.4464 43.6797 27.9064 43.6797 26.0064C43.6797 24.1064 45.2197 22.5664 47.1197 22.5664C49.0197 22.5664 50.5597 24.1064 50.5597 26.0064C50.5597 27.9064 49.0197 29.4464 47.1197 29.4464ZM47.1197 24.5664C46.3297 24.5664 45.6797 25.2164 45.6797 26.0064C45.6797 26.7964 46.3297 27.4464 47.1197 27.4464C47.9097 27.4464 48.5597 26.7964 48.5597 26.0064C48.5597 25.2164 47.9097 24.5664 47.1197 24.5664Z" fill="white"/>
<path d="M44.3372 27.0078H38.6172C38.0672 27.0078 37.6172 26.5578 37.6172 26.0078C37.6172 25.4578 38.0672 25.0078 38.6172 25.0078H44.3372C44.8872 25.0078 45.3372 25.4578 45.3372 26.0078C45.3372 26.5578 44.8872 27.0078 44.3372 27.0078Z" fill="white"/>
<path d="M40.8022 14.1897C39.9222 14.1897 39.0422 13.8497 38.3722 13.1797C37.0322 11.8397 37.0322 9.64969 38.3722 8.30969C39.7122 6.96969 41.9022 6.96969 43.2422 8.30969C43.8922 8.95969 44.2522 9.81969 44.2522 10.7397C44.2522 11.6597 43.8922 12.5197 43.2422 13.1697C42.5922 13.8197 41.6922 14.1797 40.8122 14.1797L40.8022 14.1897ZM40.8022 9.30969C40.4322 9.30969 40.0622 9.44969 39.7822 9.72969C39.2222 10.2897 39.2222 11.2097 39.7822 11.7697C40.3422 12.3297 41.2622 12.3297 41.8222 11.7697C42.0922 11.4997 42.2422 11.1397 42.2422 10.7497C42.2422 10.3597 42.0922 9.99969 41.8222 9.72969C41.5422 9.44969 41.1722 9.30969 40.8022 9.30969Z" fill="white"/>
<path d="M34.5423 17.5081C34.2623 17.5081 33.9923 17.3981 33.7923 17.1681C33.4223 16.7581 33.4623 16.1181 33.8823 15.7581L38.1723 11.9681C38.5823 11.5981 39.2223 11.6381 39.5823 12.0581C39.9523 12.4681 39.9123 13.1081 39.4923 13.4681L35.2023 17.2581C35.0123 17.4281 34.7723 17.5081 34.5423 17.5081Z" fill="white"/>
</svg>
