<svg width="51" height="40" viewBox="0 0 51 40" fill="none" xmlns="http://www.w3.org/2000/svg">
<path d="M36.5569 39.3376C32.9669 39.3376 29.4869 37.9977 26.8769 35.5677C24.0869 32.9777 22.5469 29.4777 22.5469 25.7177C22.5469 18.2077 28.8269 12.0977 36.5369 12.0977C44.2469 12.0977 50.5269 18.2077 50.5269 25.7177C50.5269 31.2377 47.1469 36.1677 41.9169 38.2977C41.4069 38.5077 40.8269 38.2577 40.6169 37.7477C40.4069 37.2377 40.6569 36.6577 41.1669 36.4477C45.6369 34.6277 48.5269 30.4177 48.5269 25.7277C48.5269 19.3177 43.1469 14.1077 36.5369 14.1077C29.9269 14.1077 24.5469 19.3177 24.5469 25.7277C24.5469 28.9277 25.8569 31.9076 28.2369 34.1176C30.6969 36.4076 34.0569 37.5777 37.4669 37.3177C38.0069 37.2677 38.4969 37.6877 38.5369 38.2377C38.5769 38.7877 38.1669 39.2676 37.6169 39.3076C37.2669 39.3376 36.9069 39.3477 36.5569 39.3477V39.3376Z" fill="white"/>
<path d="M27.1497 39.5678H7.33968C5.40968 39.5678 3.76967 38.1178 3.51967 36.2078C3.33967 34.7478 3.35969 33.1378 3.59969 31.5578C3.66969 31.0978 3.81969 30.6578 4.03969 30.2678C2.29969 30.0678 0.879689 28.6978 0.659689 26.9278C0.479689 25.4678 0.499635 23.8578 0.729635 22.2778C0.999635 20.4178 2.63968 19.0078 4.52968 19.0078H10.0997C10.6497 19.0078 11.0997 19.4578 11.0997 20.0078C11.0997 20.5578 10.6497 21.0078 10.0997 21.0078H4.52968C3.61968 21.0078 2.83968 21.6778 2.70968 22.5678C2.49968 23.9778 2.47967 25.3978 2.63967 26.6778C2.75967 27.5978 3.53969 28.2878 4.46969 28.2878H23.4497C23.9997 28.2878 24.4497 28.7378 24.4497 29.2878C24.4497 29.8378 23.9997 30.2878 23.4497 30.2878H7.38967C6.47967 30.2878 5.69966 30.9578 5.56966 31.8478C5.35966 33.2578 5.33965 34.6778 5.49965 35.9578C5.61965 36.8778 6.39967 37.5678 7.32967 37.5678H27.1397C27.8397 37.5678 28.4697 37.1878 28.7797 36.5678C29.0297 36.0778 29.6397 35.8878 30.1297 36.1278C30.6197 36.3778 30.8197 36.9778 30.5697 37.4778C29.9097 38.7678 28.5997 39.5678 27.1497 39.5678Z" fill="white"/>
<path d="M24.2932 21.0078H9.45312C8.90312 21.0078 8.45312 20.5578 8.45312 20.0078C8.45312 19.4578 8.90312 19.0078 9.45312 19.0078H24.2932C24.8432 19.0078 25.2932 19.4578 25.2932 20.0078C25.2932 20.5578 24.8432 21.0078 24.2932 21.0078Z" fill="white"/>
<path d="M7.33905 21.0105C5.40905 21.0105 3.75904 19.5605 3.51904 17.6505C3.33904 16.1905 3.35905 14.5805 3.58905 13.0005C3.85905 11.1405 5.49903 9.73047 7.38903 9.73047H27.089C28.979 9.73047 30.619 11.1405 30.889 13.0005C30.949 13.3905 30.989 13.7705 31.019 14.1605C31.059 14.7105 30.6491 15.1905 30.0991 15.2405C29.5391 15.2805 29.069 14.8705 29.019 14.3205C28.989 13.9805 28.949 13.6305 28.899 13.2905C28.769 12.4005 27.979 11.7305 27.079 11.7305H7.37902C6.46902 11.7305 5.67901 12.4005 5.54901 13.2905C5.33901 14.7005 5.319 16.1205 5.479 17.4005C5.599 18.3205 6.37902 19.0105 7.30902 19.0105C7.85902 19.0105 8.30902 19.4605 8.30902 20.0105C8.30902 20.5605 7.85902 21.0105 7.30902 21.0105H7.33905Z" fill="white"/>
<path d="M25.0097 11.7292H5.18974C3.24974 11.7292 1.60973 10.2792 1.36973 8.36922C1.18973 6.90922 1.20975 5.29922 1.44975 3.71922C1.71975 1.85922 3.35973 0.449219 5.24973 0.449219H24.9497C26.8497 0.449219 28.4797 1.85922 28.7497 3.71922C28.9797 5.29922 29.0098 6.90922 28.8298 8.36922C28.5898 10.2892 26.9497 11.7292 25.0097 11.7292ZM5.24973 2.44922C4.33973 2.44922 3.55973 3.11922 3.42973 4.00922C3.21973 5.41922 3.19972 6.83922 3.35972 8.11922C3.47972 9.03922 4.25974 9.72922 5.18974 9.72922H25.0097C25.9397 9.72922 26.7298 9.03922 26.8398 8.11922C26.9998 6.82922 26.9798 5.40922 26.7698 4.00922C26.6398 3.11922 25.8597 2.44922 24.9497 2.44922H5.24973Z" fill="white"/>
<path d="M42.4279 28.8589L42.8379 24.6489C43.0379 23.4389 41.9379 22.4089 40.7179 22.6689C39.9479 22.8389 39.2979 23.0989 38.7479 22.4689L37.5079 21.0489C36.8079 20.2389 35.5379 20.2389 34.8279 21.0489L33.5879 22.4689C33.3079 22.7889 32.8679 22.9389 32.4479 22.8489L31.6279 22.6689C30.4179 22.4089 29.3079 23.4389 29.5179 24.6489L29.9279 28.8589C30.0379 29.5589 30.5779 30.1089 31.2679 30.2689C34.4879 31.0289 37.8879 31.0189 41.0979 30.2689C41.7879 30.1089 42.3079 29.5489 42.4179 28.8589H42.4279Z" fill="white"/>
<path d="M36.1759 31.8297C34.4459 31.8297 32.7259 31.6297 31.0459 31.2397C29.9459 30.9797 29.1259 30.1097 28.9459 29.0197L28.5259 24.7497C28.3859 23.9297 28.6859 23.0197 29.3459 22.3997C30.0059 21.7697 30.9459 21.5097 31.8459 21.6997L32.6659 21.8797C32.7359 21.8997 32.8059 21.8797 32.8459 21.8197L34.0859 20.3997C35.1359 19.1897 37.2159 19.1897 38.2759 20.3997L39.5159 21.8197C39.6559 21.8997 40.0059 21.8197 40.2259 21.7697L40.5259 21.6997C41.4259 21.5097 42.3659 21.7697 43.0259 22.3997C43.6859 23.0197 43.9859 23.9297 43.8359 24.8197L43.4359 28.9597C43.4359 28.9597 43.4359 28.9997 43.4359 29.0297C43.2559 30.1197 42.4359 30.9897 41.3559 31.2497C39.6659 31.6497 37.9359 31.8497 36.1959 31.8497L36.1759 31.8297ZM31.2459 23.6297C30.9759 23.6297 30.7959 23.7697 30.7159 23.8397C30.6359 23.9197 30.4459 24.1397 30.4959 24.4797L30.9159 28.7597C30.9559 28.9897 31.1859 29.2197 31.4959 29.2997C34.5659 30.0197 37.8059 30.0197 40.8659 29.2997C41.1559 29.2297 41.3659 29.0097 41.4259 28.7297L41.8359 24.5597C41.8959 24.1497 41.7159 23.9297 41.6259 23.8497C41.5359 23.7597 41.2959 23.5697 40.9259 23.6597L40.6659 23.7197C39.9459 23.8897 38.8659 24.1397 37.9959 23.1397L36.7559 21.7197C36.5559 21.4897 36.3059 21.4597 36.1759 21.4597C36.0459 21.4597 35.7959 21.4897 35.5959 21.7197L34.3559 23.1397C33.8359 23.7397 33.0259 24.0097 32.2459 23.8397L31.4259 23.6597C31.3659 23.6497 31.3059 23.6397 31.2559 23.6397L31.2459 23.6297Z" fill="white"/>
</svg>
