<svg width="53" height="53" viewBox="0 0 53 53" fill="none" xmlns="http://www.w3.org/2000/svg">
<path d="M3.08905 35.7699C2.67905 35.7699 2.29905 35.5199 2.14905 35.1099C1.07905 32.1999 0.539062 29.1399 0.539062 26.0099C0.539062 22.8799 1.07905 19.8199 2.14905 16.9099C2.33905 16.3899 2.91902 16.1299 3.42902 16.3199C3.94902 16.5099 4.20904 17.0799 4.01904 17.5999C3.02904 20.2899 2.52905 23.1199 2.52905 26.0199C2.52905 28.9199 3.02904 31.7499 4.01904 34.4399C4.20904 34.9599 3.93902 35.5299 3.42902 35.7199C3.31902 35.7599 3.19905 35.7799 3.08905 35.7799V35.7699Z" fill="white"/>
<path d="M35.3 3.55844C35.19 3.55844 35.07 3.53844 34.96 3.49844C29.58 1.52844 23.51 1.52844 18.13 3.49844C17.61 3.68844 17.04 3.41844 16.85 2.90844C16.66 2.39844 16.93 1.81844 17.44 1.62844C23.26 -0.511563 29.83 -0.511563 35.65 1.62844C36.17 1.81844 36.43 2.38844 36.24 2.90844C36.09 3.30844 35.71 3.56844 35.3 3.56844V3.55844Z" fill="white"/>
<path d="M49.9864 35.7716C49.8664 35.7716 49.7564 35.7516 49.6364 35.7116C49.1164 35.5216 48.8565 34.9416 49.0465 34.4316C50.0365 31.7616 50.5365 28.9316 50.5365 26.0216C50.5365 23.1116 50.0365 20.2816 49.0465 17.6116C48.8565 17.0916 49.1164 16.5216 49.6364 16.3316C50.1564 16.1416 50.7265 16.4016 50.9165 16.9216C51.9865 19.8116 52.5264 22.8816 52.5264 26.0316C52.5264 29.1816 51.9865 32.2416 50.9165 35.1416C50.7665 35.5416 50.3864 35.7916 49.9764 35.7916L49.9864 35.7716Z" fill="white"/>
<path d="M26.5412 52.011C23.4112 52.011 20.3511 51.471 17.4411 50.401C16.9211 50.211 16.6612 49.641 16.8512 49.121C17.0412 48.601 17.6211 48.331 18.1311 48.531C23.5111 50.501 29.5811 50.501 34.9611 48.531C35.4811 48.341 36.0511 48.611 36.2411 49.121C36.4311 49.641 36.1611 50.211 35.6511 50.401C32.7411 51.471 29.6811 52.011 26.5511 52.011H26.5412Z" fill="white"/>
<path d="M26.0391 12.0117C18.0291 12.0117 11.5391 18.5017 11.5391 26.5117C11.5391 34.5217 18.0291 41.0117 26.0391 41.0117C34.0491 41.0117 40.5391 34.5217 40.5391 26.5117C40.5391 18.5017 34.0491 12.0117 26.0391 12.0117ZM30.559 33.7617H18.129L21.519 29.8117H33.949L30.559 33.7617ZM21.519 28.4917L18.129 24.5417H30.559L33.949 28.4917H21.519ZM30.559 23.2117H18.129L21.519 19.2617H33.949L30.559 23.2117Z" fill="white"/>
<path d="M5.77905 10.48C2.88905 10.48 0.539062 8.13 0.539062 5.24C0.539062 2.35 2.88905 0 5.77905 0C8.66905 0 11.019 2.35 11.019 5.24C11.019 8.13 8.66905 10.48 5.77905 10.48ZM5.77905 2.01C3.98905 2.01 2.53906 3.46 2.53906 5.25C2.53906 7.04 3.98905 8.49 5.77905 8.49C7.56905 8.49 9.01904 7.04 9.01904 5.25C9.01904 3.46 7.56905 2.01 5.77905 2.01Z" fill="white"/>
<path d="M5.77905 52.0112C2.88905 52.0112 0.539062 49.6612 0.539062 46.7712C0.539062 43.8812 2.88905 41.5312 5.77905 41.5312C8.66905 41.5312 11.019 43.8812 11.019 46.7712C11.019 49.6612 8.66905 52.0112 5.77905 52.0112ZM5.77905 43.5412C3.98905 43.5412 2.53906 44.9913 2.53906 46.7812C2.53906 48.5712 3.98905 50.0212 5.77905 50.0212C7.56905 50.0212 9.01904 48.5712 9.01904 46.7812C9.01904 44.9913 7.56905 43.5412 5.77905 43.5412Z" fill="white"/>
<path d="M47.3025 52.0112C44.4125 52.0112 42.0625 49.6612 42.0625 46.7712C42.0625 43.8812 44.4125 41.5312 47.3025 41.5312C50.1925 41.5312 52.5425 43.8812 52.5425 46.7712C52.5425 49.6612 50.1925 52.0112 47.3025 52.0112ZM47.3025 43.5412C45.5125 43.5412 44.0625 44.9913 44.0625 46.7812C44.0625 48.5712 45.5125 50.0212 47.3025 50.0212C49.0925 50.0212 50.5425 48.5712 50.5425 46.7812C50.5425 44.9913 49.0925 43.5412 47.3025 43.5412Z" fill="white"/>
<path d="M47.3025 10.48C44.4125 10.48 42.0625 8.13 42.0625 5.24C42.0625 2.35 44.4125 0 47.3025 0C50.1925 0 52.5425 2.35 52.5425 5.24C52.5425 8.13 50.1925 10.48 47.3025 10.48ZM47.3025 2.01C45.5125 2.01 44.0625 3.46 44.0625 5.25C44.0625 7.04 45.5125 8.49 47.3025 8.49C49.0925 8.49 50.5425 7.04 50.5425 5.25C50.5425 3.46 49.0925 2.01 47.3025 2.01Z" fill="white"/>
</svg>
