<svg width="42" height="30" viewBox="0 0 42 30" fill="none" xmlns="http://www.w3.org/2000/svg">
<path d="M40.6908 4.55179C40.212 2.7719 38.8087 1.36883 37.029 0.889565C33.7779 0 20.7729 0 20.7729 0C20.7729 0 7.76848 0 4.51731 0.855839C2.7719 1.3346 1.33435 2.77216 0.855585 4.55179C0 7.80271 0 14.5447 0 14.5447C0 14.5447 0 21.3207 0.855585 24.5376C1.33485 26.3172 2.73767 27.7203 4.51756 28.1996C7.80271 29.0894 20.7734 29.0894 20.7734 29.0894C20.7734 29.0894 33.7779 29.0894 37.029 28.2335C38.8089 27.7545 40.212 26.3515 40.6913 24.5718C41.5466 21.3207 41.5466 14.5789 41.5466 14.5789C41.5466 14.5789 41.5808 7.80271 40.6908 4.55179ZM16.6324 20.7732V8.31622L27.4467 14.5447L16.6324 20.7732Z" fill="url(#paint0_linear_9992_1074)"/>
<defs>
<linearGradient id="paint0_linear_9992_1074" x1="35.0534" y1="5.10593" x2="10.152" y2="35.4322" gradientUnits="userSpaceOnUse">
<stop stop-color="#EA96FE"/>
<stop offset="0.5" stop-color="#B15AF7"/>
<stop offset="1" stop-color="#832AF2"/>
</linearGradient>
</defs>
</svg>
